<svg width="265" height="66" viewBox="0 0 265 66" fill="none" xmlns="http://www.w3.org/2000/svg">
<rect x="13" y="9" width="54" height="54" rx="7" stroke="#F9F9FA" stroke-width="6"/>
<rect x="30" y="19" width="20" height="34" rx="7" stroke="#F9F9FA" stroke-width="6"/>
<path d="M91.875 41.0469C91.875 40.6406 91.8125 40.276 91.6875 39.9531C91.5729 39.6198 91.3542 39.3177 91.0312 39.0469C90.7083 38.7656 90.2552 38.4896 89.6719 38.2188C89.0885 37.9479 88.3333 37.6667 87.4062 37.375C86.375 37.0417 85.3958 36.6667 84.4688 36.25C83.5521 35.8333 82.7396 35.349 82.0312 34.7969C81.3333 34.2344 80.7812 33.5833 80.375 32.8438C79.9792 32.1042 79.7812 31.2448 79.7812 30.2656C79.7812 29.3177 79.9896 28.4583 80.4062 27.6875C80.8229 26.9062 81.4062 26.2396 82.1562 25.6875C82.9062 25.125 83.7917 24.6927 84.8125 24.3906C85.8438 24.0885 86.974 23.9375 88.2031 23.9375C89.8802 23.9375 91.3438 24.2396 92.5938 24.8438C93.8438 25.4479 94.8125 26.276 95.5 27.3281C96.1979 28.3802 96.5469 29.5833 96.5469 30.9375H91.8906C91.8906 30.2708 91.75 29.6875 91.4688 29.1875C91.1979 28.6771 90.7812 28.276 90.2188 27.9844C89.6667 27.6927 88.9688 27.5469 88.125 27.5469C87.3125 27.5469 86.6354 27.6719 86.0938 27.9219C85.5521 28.1615 85.1458 28.4896 84.875 28.9062C84.6042 29.3125 84.4688 29.7708 84.4688 30.2812C84.4688 30.6667 84.5625 31.0156 84.75 31.3281C84.9479 31.6406 85.2396 31.9323 85.625 32.2031C86.0104 32.474 86.4844 32.7292 87.0469 32.9688C87.6094 33.2083 88.2604 33.4427 89 33.6719C90.2396 34.0469 91.3281 34.4688 92.2656 34.9375C93.2135 35.4062 94.0052 35.9323 94.6406 36.5156C95.276 37.099 95.7552 37.7604 96.0781 38.5C96.401 39.2396 96.5625 40.0781 96.5625 41.0156C96.5625 42.0052 96.3698 42.8906 95.9844 43.6719C95.599 44.4531 95.0417 45.1146 94.3125 45.6562C93.5833 46.1979 92.7135 46.6094 91.7031 46.8906C90.6927 47.1719 89.5625 47.3125 88.3125 47.3125C87.1875 47.3125 86.0781 47.1667 84.9844 46.875C83.8906 46.5729 82.8958 46.1198 82 45.5156C81.1146 44.9115 80.4062 44.1406 79.875 43.2031C79.3438 42.2656 79.0781 41.1562 79.0781 39.875H83.7812C83.7812 40.5833 83.8906 41.1823 84.1094 41.6719C84.3281 42.1615 84.6354 42.5573 85.0312 42.8594C85.4375 43.1615 85.9167 43.3802 86.4688 43.5156C87.0312 43.651 87.6458 43.7188 88.3125 43.7188C89.125 43.7188 89.7917 43.6042 90.3125 43.375C90.8438 43.1458 91.2344 42.8281 91.4844 42.4219C91.7448 42.0156 91.875 41.5573 91.875 41.0469ZM108.609 38.8906H102.812V35.2344H108.609C109.505 35.2344 110.234 35.0885 110.797 34.7969C111.359 34.4948 111.771 34.0781 112.031 33.5469C112.292 33.0156 112.422 32.4167 112.422 31.75C112.422 31.0729 112.292 30.4427 112.031 29.8594C111.771 29.276 111.359 28.8073 110.797 28.4531C110.234 28.099 109.505 27.9219 108.609 27.9219H104.438V47H99.75V24.25H108.609C110.391 24.25 111.917 24.5729 113.188 25.2188C114.469 25.8542 115.448 26.7344 116.125 27.8594C116.802 28.9844 117.141 30.2708 117.141 31.7188C117.141 33.1875 116.802 34.4583 116.125 35.5312C115.448 36.6042 114.469 37.4323 113.188 38.0156C111.917 38.599 110.391 38.8906 108.609 38.8906ZM127.031 28.1406L120.844 47H115.859L124.312 24.25H127.484L127.031 28.1406ZM132.172 47L125.969 28.1406L125.469 24.25H128.672L137.172 47H132.172ZM131.891 38.5312V42.2031H119.875V38.5312H131.891ZM152.188 39.4531H156.859C156.766 40.9844 156.344 42.3438 155.594 43.5312C154.854 44.7188 153.818 45.6458 152.484 46.3125C151.161 46.9792 149.568 47.3125 147.703 47.3125C146.245 47.3125 144.938 47.0625 143.781 46.5625C142.625 46.0521 141.635 45.3229 140.812 44.375C140 43.4271 139.38 42.2812 138.953 40.9375C138.526 39.5938 138.312 38.0885 138.312 36.4219V34.8438C138.312 33.1771 138.531 31.6719 138.969 30.3281C139.417 28.974 140.052 27.8229 140.875 26.875C141.708 25.9271 142.703 25.1979 143.859 24.6875C145.016 24.1771 146.307 23.9219 147.734 23.9219C149.63 23.9219 151.229 24.2656 152.531 24.9531C153.844 25.6406 154.859 26.5885 155.578 27.7969C156.307 29.0052 156.745 30.3802 156.891 31.9219H152.203C152.151 31.0052 151.969 30.2292 151.656 29.5938C151.344 28.9479 150.87 28.4635 150.234 28.1406C149.609 27.8073 148.776 27.6406 147.734 27.6406C146.953 27.6406 146.271 27.7865 145.688 28.0781C145.104 28.3698 144.615 28.8125 144.219 29.4062C143.823 30 143.526 30.75 143.328 31.6562C143.141 32.5521 143.047 33.6042 143.047 34.8125V36.4219C143.047 37.599 143.135 38.6354 143.312 39.5312C143.49 40.4167 143.76 41.1667 144.125 41.7812C144.5 42.3854 144.979 42.8438 145.562 43.1562C146.156 43.4583 146.87 43.6094 147.703 43.6094C148.682 43.6094 149.49 43.4531 150.125 43.1406C150.76 42.8281 151.245 42.3646 151.578 41.75C151.922 41.1354 152.125 40.3698 152.188 39.4531ZM175.203 43.3438V47H163.094V43.3438H175.203ZM164.625 24.25V47H159.938V24.25H164.625ZM173.625 33.5156V37.0781H163.094V33.5156H173.625ZM175.188 24.25V27.9219H163.094V24.25H175.188Z" fill="#E64E35"/>
<path d="M185.906 24.25H194.391C196.13 24.25 197.625 24.5104 198.875 25.0312C200.135 25.5521 201.104 26.3229 201.781 27.3438C202.458 28.3646 202.797 29.6198 202.797 31.1094C202.797 32.3281 202.589 33.375 202.172 34.25C201.766 35.1146 201.188 35.8385 200.438 36.4219C199.698 36.9948 198.828 37.4531 197.828 37.7969L196.344 38.5781H188.969L188.938 34.9219H194.422C195.245 34.9219 195.927 34.776 196.469 34.4844C197.01 34.1927 197.417 33.7865 197.688 33.2656C197.969 32.7448 198.109 32.1406 198.109 31.4531C198.109 30.724 197.974 30.0938 197.703 29.5625C197.432 29.0312 197.021 28.625 196.469 28.3438C195.917 28.0625 195.224 27.9219 194.391 27.9219H190.594V47H185.906V24.25ZM198.625 47L193.438 36.8594L198.391 36.8281L203.641 46.7812V47H198.625ZM221.672 43.3438V47H209.562V43.3438H221.672ZM211.094 24.25V47H206.406V24.25H211.094ZM220.094 33.5156V37.0781H209.562V33.5156H220.094ZM221.656 24.25V27.9219H209.562V24.25H221.656ZM242.922 24.25V47H238.234L229.094 31.75V47H224.406V24.25H229.094L238.25 39.5156V24.25H242.922ZM256.703 24.25V47H252.031V24.25H256.703ZM263.703 24.25V27.9219H245.141V24.25H263.703Z" fill="#F9F9FA"/>
<line y1="3" x2="80" y2="3" stroke="#E64E35" stroke-width="6"/>
</svg>
